<svg width="22" height="22" viewBox="0 0 22 22" fill="none" xmlns="http://www.w3.org/2000/svg">
<g clip-path="url(#clip0_104_83)">
<rect width="22" height="22" rx="11" fill="#EA4335"/>
<path d="M3.67134 11.0096C3.52478 7.15055 6.90492 3.58436 10.7678 3.5381C12.7366 3.37017 14.652 4.13473 16.142 5.38169C15.5308 6.05371 14.9089 6.71796 14.2447 7.33983C12.933 6.54292 11.3538 5.93561 9.82077 6.47497C7.34819 7.17902 5.85079 10.0984 6.76579 12.5173C7.52355 15.0436 10.5963 16.43 13.0045 15.3688C14.2515 14.9223 15.0736 13.7717 15.4344 12.5354C14.0053 12.5069 12.5758 12.5247 11.1467 12.4853C11.1431 11.635 11.1396 10.7879 11.1431 9.93762C13.5264 9.93407 15.9132 9.92695 18.3001 9.9483C18.4467 12.0317 18.1393 14.2612 16.7849 15.9334C14.9303 18.3202 11.5039 19.0207 8.71649 18.0843C5.75825 17.1127 3.60696 14.1325 3.67134 11.0096Z" fill="#FEFEFE"/>
</g>
<defs>
<clipPath id="clip0_104_83">
<rect width="22" height="22" fill="white"/>
</clipPath>
</defs>
</svg>
