<svg width="67" height="80" viewBox="0 0 67 80" fill="none" xmlns="http://www.w3.org/2000/svg">
<path d="M18.8789 44V36H20.0859V39.4766H24.0742V36H25.2852V44H24.0742V40.5117H20.0859V44H18.8789ZM29.4766 44.1211C28.9141 44.1211 28.4232 43.9922 28.0039 43.7344C27.5846 43.4766 27.2591 43.1159 27.0273 42.6523C26.7956 42.1888 26.6797 41.6471 26.6797 41.0273C26.6797 40.4049 26.7956 39.8607 27.0273 39.3945C27.2591 38.9284 27.5846 38.5664 28.0039 38.3086C28.4232 38.0508 28.9141 37.9219 29.4766 37.9219C30.0391 37.9219 30.5299 38.0508 30.9492 38.3086C31.3685 38.5664 31.694 38.9284 31.9258 39.3945C32.1576 39.8607 32.2734 40.4049 32.2734 41.0273C32.2734 41.6471 32.1576 42.1888 31.9258 42.6523C31.694 43.1159 31.3685 43.4766 30.9492 43.7344C30.5299 43.9922 30.0391 44.1211 29.4766 44.1211ZM29.4805 43.1406C29.8451 43.1406 30.1471 43.0443 30.3867 42.8516C30.6263 42.6589 30.8034 42.4023 30.918 42.082C31.0352 41.7617 31.0938 41.4089 31.0938 41.0234C31.0938 40.6406 31.0352 40.2891 30.918 39.9687C30.8034 39.6458 30.6263 39.3867 30.3867 39.1914C30.1471 38.9961 29.8451 38.8984 29.4805 38.8984C29.1133 38.8984 28.8086 38.9961 28.5664 39.1914C28.3268 39.3867 28.1484 39.6458 28.0313 39.9687C27.9167 40.2891 27.8594 40.6406 27.8594 41.0234C27.8594 41.4089 27.9167 41.7617 28.0313 42.082C28.1484 42.4023 28.3268 42.6589 28.5664 42.8516C28.8086 43.0443 29.1133 43.1406 29.4805 43.1406ZM33.5771 44V38H34.6982V38.9766H34.7725C34.8975 38.6458 35.1019 38.388 35.3857 38.2031C35.6696 38.0156 36.0094 37.9219 36.4053 37.9219C36.8063 37.9219 37.1423 38.0156 37.4131 38.2031C37.6865 38.3906 37.8883 38.6484 38.0186 38.9766H38.0811C38.2243 38.6562 38.4521 38.401 38.7646 38.2109C39.0771 38.0182 39.4495 37.9219 39.8818 37.9219C40.4261 37.9219 40.8701 38.0924 41.2139 38.4336C41.5602 38.7747 41.7334 39.2891 41.7334 39.9766V44H40.5654V40.0859C40.5654 39.6797 40.4548 39.3854 40.2334 39.2031C40.012 39.0208 39.7477 38.9297 39.4404 38.9297C39.0602 38.9297 38.7646 39.0469 38.5537 39.2812C38.3428 39.513 38.2373 39.8112 38.2373 40.1758V44H37.0732V40.0117C37.0732 39.6862 36.9717 39.4245 36.7686 39.2266C36.5654 39.0286 36.3011 38.9297 35.9756 38.9297C35.7542 38.9297 35.5498 38.9883 35.3623 39.1055C35.1774 39.2201 35.0277 39.3802 34.9131 39.5859C34.8011 39.7917 34.7451 40.0299 34.7451 40.3008V44H33.5771ZM45.8848 44.1211C45.2936 44.1211 44.7845 43.9948 44.3574 43.7422C43.9329 43.487 43.6048 43.1289 43.373 42.668C43.1439 42.2044 43.0293 41.6615 43.0293 41.0391C43.0293 40.4245 43.1439 39.8828 43.373 39.4141C43.6048 38.9453 43.9277 38.5794 44.3418 38.3164C44.7585 38.0534 45.2454 37.9219 45.8027 37.9219C46.1413 37.9219 46.4694 37.9779 46.7871 38.0898C47.1048 38.2018 47.39 38.3776 47.6426 38.6172C47.8952 38.8568 48.0944 39.168 48.2402 39.5508C48.3861 39.931 48.459 40.3932 48.459 40.9375V41.3516H43.6895V40.4766H47.3145C47.3145 40.1693 47.252 39.8971 47.127 39.6602C47.002 39.4206 46.8262 39.2318 46.5996 39.0937C46.3757 38.9557 46.1126 38.8867 45.8105 38.8867C45.4824 38.8867 45.196 38.9674 44.9512 39.1289C44.709 39.2878 44.5215 39.4961 44.3887 39.7539C44.2585 40.0091 44.1934 40.2865 44.1934 40.5859V41.2695C44.1934 41.6706 44.2637 42.0117 44.4043 42.293C44.5475 42.5742 44.7467 42.7891 45.002 42.9375C45.2572 43.0833 45.5553 43.1562 45.8965 43.1562C46.1178 43.1562 46.3197 43.125 46.502 43.0625C46.6842 42.9974 46.8418 42.901 46.9746 42.7734C47.1074 42.6458 47.209 42.4883 47.2793 42.3008L48.3848 42.5C48.2962 42.8255 48.1374 43.1107 47.9082 43.3555C47.6816 43.5977 47.3965 43.7865 47.0527 43.9219C46.7116 44.0547 46.3223 44.1211 45.8848 44.1211Z" fill="#9775FA"/>
</svg>
